<svg xmlns="http://www.w3.org/2000/svg" baseProfile="full" version="1.1" width="300px" height="300px" style="fill: none; width: 128px; height: 1280px;"><path d="" style="stroke-width: 4; stroke-linecap: round; stroke-linejoin: round; stroke: rgb(0, 0, 0); fill: none;"/><path d="M60,165 A15,15 0 0,1 45,150 A15,15 0 0,1 60,135 L75,135 A15,15 0 0,1 90,150 A15,15 0 0,1 75,165 L60,165 M240,135 A15,15 0 0,1 255,150 A15,15 0 0,1 240,165 L225,165 A15,15 0 0,1 210,150 A15,15 0 0,1 225,135 L240,135 M225,75 A15,15 0 0,1 210,60 A15,15 0 0,1 225,45 L240,45 A15,15 0 0,1 255,60 A15,15 0 0,1 240,75 L225,75 M45,240 A15,15 0 0,1 60,225 L75,225 A15,15 0 0,1 90,240 A15,15 0 0,1 75,255 L60,255 A15,15 0 0,1 45,240 " style="stroke-width: 11; stroke-linecap: round; stroke-linejoin: round; stroke: rgb(0, 0, 0); fill: none;"/><path d="M120,240 A30,30 0 0,0 150,210 M150,90 A30,30 0 0,1 180,60 M90,240 L90,240 L120,240 L90,240 M150,210 L150,210 L150,90 M180,60 L180,60 L210,60 M90,150 L90,150 L210,150 M195,45 L195,45 L210,60 L195,75 M195,135 L195,135 L210,150 L195,165 " style="stroke-width: 11; stroke-linecap: round; stroke-linejoin: round; stroke: rgb(0, 0, 0); fill: none;"/></svg>