<svg xmlns="http://www.w3.org/2000/svg" baseProfile="full" version="1.1" width="1860px" height="840px" style="fill: none; width: 1860px; height: 840px;"><path d="" style="stroke-width: 15; stroke-linecap: round; stroke-linejoin: round; stroke: rgb(106, 106, 106); fill: none;"/><path d="M660,120 L660,120 A60,60 0 0,1 600,180 L600,180 M1080,180 A60,60 0 0,1 1020,120 L1020,120 A60,60 0 0,1 1080,60 M480,420 A60,60 0 0,1 420,360 L420,360 A60,60 0 0,1 480,300 M660,120 M660,120 A60,60 0 0,0 600,60 M1200,60 A60,60 0 0,1 1260,120 L1260,120 A60,60 0 0,1 1200,180 M480,60 A60,60 0 0,0 420,120 L420,120 A60,60 0 0,0 480,180 L480,180 L600,180 M600,60 L600,60 L480,60 M1080,60 L1080,60 L1200,60 M1200,180 L1200,180 L1080,180 M600,300 A60,60 0 0,1 660,360 A60,60 0 0,1 600,420 M480,300 L480,300 L600,300 M600,420 L600,420 L480,420 M660,120 Q840,120 1020,120 M660,360 Q840,360 840,240 Q840,120 1020,120 " style="stroke-width: 16; stroke-linecap: butt; stroke-linejoin: round; stroke: rgb(0, 0, 0); fill: none;"/><path d="" style="stroke-width: 15; stroke-linecap: round; stroke-linejoin: round; stroke: rgb(10, 10, 10); fill: none;"/></svg>